<svg xmlns="http://www.w3.org/2000/svg" width="20" height="20" viewBox="0 0 20 20">
  <!-- Icons: Lucide v1.37.0, ISC license. See LICENSES/Lucide.txt. -->
  <g data-lucide-icon="brain">
      <path transform="matrix(0.5416666666666666 0 0 0.5416666666666666 1 3.5)" fill="none" stroke="#FFFFFF" stroke-width="2" stroke-linecap="round" stroke-linejoin="round" d="M12 18V5" />
  <path transform="matrix(0.5416666666666666 0 0 0.5416666666666666 1 3.5)" fill="none" stroke="#FFFFFF" stroke-width="2" stroke-linecap="round" stroke-linejoin="round" d="M15 13a4.17 4.17 0 0 1-3-4 4.17 4.17 0 0 1-3 4" />
  <path transform="matrix(0.5416666666666666 0 0 0.5416666666666666 1 3.5)" fill="none" stroke="#FFFFFF" stroke-width="2" stroke-linecap="round" stroke-linejoin="round" d="M17.598 6.5A3 3 0 1 0 12 5a3 3 0 1 0-5.598 1.5" />
  <path transform="matrix(0.5416666666666666 0 0 0.5416666666666666 1 3.5)" fill="none" stroke="#FFFFFF" stroke-width="2" stroke-linecap="round" stroke-linejoin="round" d="M17.997 5.125a4 4 0 0 1 2.526 5.77" />
  <path transform="matrix(0.5416666666666666 0 0 0.5416666666666666 1 3.5)" fill="none" stroke="#FFFFFF" stroke-width="2" stroke-linecap="round" stroke-linejoin="round" d="M18 18a4 4 0 0 0 2-7.464" />
  <path transform="matrix(0.5416666666666666 0 0 0.5416666666666666 1 3.5)" fill="none" stroke="#FFFFFF" stroke-width="2" stroke-linecap="round" stroke-linejoin="round" d="M19.967 17.483A4 4 0 1 1 12 18a4 4 0 1 1-7.967-.517" />
  <path transform="matrix(0.5416666666666666 0 0 0.5416666666666666 1 3.5)" fill="none" stroke="#FFFFFF" stroke-width="2" stroke-linecap="round" stroke-linejoin="round" d="M6 18a4 4 0 0 1-2-7.464" />
  <path transform="matrix(0.5416666666666666 0 0 0.5416666666666666 1 3.5)" fill="none" stroke="#FFFFFF" stroke-width="2" stroke-linecap="round" stroke-linejoin="round" d="M6.003 5.125a4 4 0 0 0-2.526 5.77" />
    </g>
    <g data-lucide-icon="arrow-up">
      <path transform="matrix(0.3333333333333333 0 0 0.3333333333333333 12 6)" fill="none" stroke="#FFFFFF" stroke-width="2" stroke-linecap="round" stroke-linejoin="round" d="m5 12 7-7 7 7" />
  <path transform="matrix(0.3333333333333333 0 0 0.3333333333333333 12 6)" fill="none" stroke="#FFFFFF" stroke-width="2" stroke-linecap="round" stroke-linejoin="round" d="M12 19V5" />
    </g>
</svg>
