<svg xmlns="http://www.w3.org/2000/svg" width="144" height="144" viewBox="0 0 144 144">
  <rect width="144" height="144" rx="24" fill="#071018"/>
  <rect x="8" y="8" width="128" height="128" rx="20" fill="none" stroke="#FFFFFF" stroke-opacity=".12" stroke-width="2"/>
  <rect x="28" y="14" width="88" height="80" rx="22" fill="#9E5BFF"/>
  <path d="M46 32h41a9 9 0 0 1 9 9v21a9 9 0 0 1-9 9H69L55 82V71h-9a9 9 0 0 1-9-9V41a9 9 0 0 1 9-9z" fill="none" stroke="#FFFFFF" stroke-width="7" stroke-linejoin="round"/>
  <path d="m96 23 3 8 8 3-8 3-3 8-3-8-8-3 8-3z" fill="#00FF4C"/>
</svg>
